<?xml version="1.0" encoding="iso-8859-1"?>
<!-- Uploaded to: SVG Repo, www.svgrepo.com, Generator: SVG Repo Mixer Tools -->
<svg fill="#000000" height="800px" width="800px" version="1.1" id="Layer_1" xmlns="http://www.w3.org/2000/svg" xmlns:xlink="http://www.w3.org/1999/xlink" 
	 viewBox="0 0 487.925 487.925" xml:space="preserve">
<g transform="translate(0 -540.36)">
	<g>
		<g>
			<path d="M19.762,580.885c2.5,0,5.1-1,7-2.9l20.6-20.6c3.9-3.9,3.9-10.2,0-14.1c-3.9-3.9-10.2-3.9-14.1,0l-20.6,20.6
				c-3.9,3.9-3.9,10.2,0,14.1C14.662,579.885,17.162,580.885,19.762,580.885z"/>
			<path d="M141.962,580.885c2.6,0,5.1-1,7-2.9l20.6-20.6c3.9-3.9,3.9-10.2,0-14.1s-10.2-3.9-14.1,0l-20.6,20.6
				c-3.9,3.9-3.9,10.2,0,14.1C136.862,579.885,139.362,580.885,141.962,580.885z"/>
			<path d="M264.162,580.885c2.6,0,5.2-1,7-2.9l20.6-20.6c3.9-3.9,3.9-10.2,0-14.1c-3.9-3.9-10.2-3.9-14.1,0l-20.6,20.6
				c-3.9,3.9-3.9,10.2,0,14.1C259.062,579.885,261.562,580.885,264.162,580.885z"/>
			<path d="M386.462,580.885c2.6,0,5.1-1,7-2.9l20.6-20.6c3.9-3.9,3.9-10.2,0-14.1c-3.9-3.9-10.2-3.9-14.1,0l-20.6,20.6
				c-3.9,3.9-3.9,10.2,0,14.1C381.362,579.885,383.862,580.885,386.462,580.885z"/>
			<path d="M80.862,621.285c2.5,0,5-0.9,6.9-2.8l20.6-19.8c4-3.8,4.1-10.1,0.3-14.1c-3.8-4-10.1-4.1-14.1-0.3l-20.6,19.8
				c-4,3.8-4.1,10.1-0.3,14.1C75.662,620.285,78.262,621.285,80.862,621.285z"/>
			<path d="M203.062,621.285c2.5,0,5-0.9,6.9-2.8l20.6-19.8c4-3.8,4.1-10.1,0.3-14.1c-3.8-4-10.1-4.1-14.1-0.3l-20.6,19.8
				c-4,3.8-4.1,10.1-0.3,14.1C197.862,620.285,200.462,621.285,203.062,621.285z"/>
			<path d="M325.362,621.285c2.5,0,5-0.9,6.9-2.8l20.6-19.8c4-3.8,4.1-10.1,0.3-14.1s-10.1-4.1-14.1-0.3l-20.6,19.8
				c-4,3.8-4.1,10.1-0.3,14.1C320.162,620.285,322.762,621.285,325.362,621.285z"/>
			<path d="M447.562,621.285c2.5,0,5-0.9,6.9-2.8l20.6-19.8c4-3.8,4.1-10.1,0.3-14.1s-10.1-4.1-14.1-0.3l-20.6,19.8
				c-4,3.8-4.1,10.1-0.3,14.1C442.362,620.285,444.962,621.285,447.562,621.285z"/>
			<path d="M47.362,624.785c-3.9-3.9-10.2-3.9-14.1,0l-20.6,20.6c-3.9,3.9-3.9,10.2,0,14.1c2,1.9,4.5,2.9,7.1,2.9
				c2.5,0,5.1-0.9,7-2.9l20.6-20.6C51.262,634.985,51.262,628.685,47.362,624.785z"/>
			<path d="M141.962,662.385c2.6,0,5.1-0.9,7-2.9l20.6-20.6c3.9-3.9,3.9-10.2,0-14.1s-10.2-3.9-14.1,0l-20.6,20.6
				c-3.9,3.9-3.9,10.2,0,14.1C136.862,661.385,139.362,662.385,141.962,662.385z"/>
			<path d="M386.462,662.385c2.6,0,5.1-0.9,7-2.9l20.6-20.6c3.9-3.9,3.9-10.2,0-14.1c-3.9-3.9-10.2-3.9-14.1,0l-20.6,20.6
				c-3.9,3.9-3.9,10.2,0,14.1C381.362,661.385,383.862,662.385,386.462,662.385z"/>
			<path d="M70.862,702.785c2.6,0,5.2-0.9,7-2.9l20.6-20.6c3.9-3.9,3.9-10.2,0-14.1c-3.9-3.9-10.2-3.9-14.1,0l-20.6,20.6
				c-3.9,3.9-3.9,10.2,0,14.1C65.762,701.785,68.262,702.785,70.862,702.785z"/>
			<path d="M447.562,702.785c2.6,0,5.1-0.9,7-2.9l20.6-20.6c3.9-3.9,3.9-10.2,0-14.1c-3.9-3.9-10.2-3.9-14.1,0l-20.6,20.6
				c-3.9,3.9-3.9,10.2,0,14.1C442.462,701.785,444.962,702.785,447.562,702.785z"/>
			<path d="M478.162,875.085L478.162,875.085c-7.7-116-100.8-207.5-213.9-212.6v-20c0-5.5-4.5-10-10-10c-5.5,0-10,4.5-10,10v20
				c-113.1,5.1-206.2,96.7-213.9,212.6c-0.4,5.5,3.8,10.3,9.3,10.6c5.5,0.4,10.3-3.8,10.6-9.3c1.9-29,28.8-51.6,61.1-51.6
				c32.1,0,59.3,22.8,61.9,51.9c0.4,4.8,4.3,8.8,9.3,9.1c5.5,0.4,10.3-3.8,10.6-9.3c1.7-25.9,23.4-46.8,51.1-50.9v163
				c0,21.5,18.6,39.7,40.6,39.7c0.2,0,0.3,0,0.5,0c22.5-1,40.1-18.8,40.1-40.5c0-5.5-4.5-10-10-10s-10,4.5-10,10
				c0,10.9-9.1,19.8-20.8,20.5c-11-0.1-20.3-9.1-20.3-19.7v-163c27.7,4.1,49.3,25,51.1,50.9c0.4,5.3,4.7,9.3,10,9.3
				c0.2,0,0.5,0,0.7,0c5-0.3,8.9-4.3,9.3-9.1c2.6-29.1,29.8-51.9,61.9-51.9c32.3,0,59.1,22.7,61.1,51.6c0.4,5.3,4.7,9.3,10,9.3
				c0.2,0,0.5,0,0.7,0C474.362,885.385,478.562,880.585,478.162,875.085z M397.162,804.785c-20.5,0-40.1,7.1-55.3,20
				c-6.6,5.6-12.1,12-16.3,19.1c-13.8-23.4-40.7-39.1-71.3-39.1c-30.6,0-57.4,15.8-71.3,39.1c-4.3-7.1-9.7-13.5-16.3-19.1
				c-15.2-12.9-34.8-20-55.3-20c-18.6,0-35.8,5.8-49.6,15.6c28.5-80.8,104.6-138.2,192.4-138.2c87.9,0,163.9,57.4,192.4,138.2
				C432.962,810.585,415.762,804.785,397.162,804.785z"/>
		</g>
	</g>
</g>
</svg>